<svg width="383" height="239" viewBox="0 0 383 239" fill="none" xmlns="http://www.w3.org/2000/svg">
<path d="M159.499 238.253H65.1262V237.686H159.499V238.253Z" fill="#17282F"/>
<path d="M311.63 238.253H166.719V237.686H311.63V238.253Z" fill="#17282F"/>
<path d="M326.069 238.253H315.756V237.686H326.069V238.253Z" fill="#17282F"/>
<path d="M287.375 188.094H287.659C287.658 192.377 288.323 196.255 289.384 199.037C289.913 200.428 290.544 201.543 291.222 202.295C291.904 203.05 292.613 203.429 293.329 203.429C294.046 203.429 294.755 203.05 295.436 202.295C296.456 201.167 297.359 199.221 297.992 196.755C298.627 194.29 299 191.306 299 188.094C299.001 183.81 298.336 179.933 297.275 177.15C296.745 175.76 296.115 174.644 295.436 173.892C294.755 173.138 294.046 172.758 293.329 172.758C292.613 172.758 291.904 173.138 291.222 173.892C290.203 175.02 289.3 176.967 288.667 179.432C288.032 181.897 287.659 184.881 287.659 188.094H287.375H287.091C287.091 183.751 287.76 179.819 288.854 176.948C289.401 175.513 290.055 174.341 290.801 173.512C291.544 172.686 292.401 172.191 293.329 172.191C294.257 172.191 295.114 172.686 295.858 173.512C296.975 174.755 297.891 176.77 298.542 179.29C299.19 181.811 299.567 184.837 299.567 188.094C299.567 192.436 298.899 196.368 297.805 199.239C297.257 200.675 296.604 201.846 295.858 202.675C295.114 203.502 294.257 203.996 293.329 203.997C292.401 203.996 291.544 203.502 290.801 202.675C289.683 201.432 288.768 199.418 288.117 196.897C287.468 194.377 287.091 191.35 287.091 188.094H287.375Z" fill="#17282F"/>
<path d="M274.827 178.461C276.689 184.321 280.265 188.414 282.815 187.603C285.365 186.793 285.923 181.387 284.061 175.528C282.201 169.669 278.624 165.576 276.074 166.386C273.524 167.196 272.966 172.602 274.827 178.461Z" fill="white"/>
<path d="M274.826 178.461L275.097 178.376C275.939 181.027 277.138 183.311 278.418 184.917C279.058 185.72 279.718 186.353 280.355 186.779C280.992 187.206 281.602 187.422 282.144 187.422C282.347 187.422 282.541 187.392 282.729 187.332C283.388 187.124 283.922 186.547 284.3 185.63C284.676 184.718 284.877 183.486 284.877 182.058C284.877 180.163 284.525 177.924 283.79 175.614C282.949 172.962 281.75 170.678 280.47 169.072C279.831 168.269 279.171 167.636 278.534 167.21C277.896 166.783 277.287 166.567 276.744 166.568C276.542 166.568 276.348 166.597 276.159 166.656C275.5 166.865 274.966 167.442 274.588 168.358C274.212 169.271 274.011 170.503 274.011 171.931C274.011 173.826 274.363 176.065 275.097 178.376L274.826 178.461L274.556 178.548C273.806 176.186 273.444 173.896 273.444 171.931C273.444 170.45 273.649 169.154 274.063 168.143C274.475 167.135 275.114 166.394 275.987 166.115C276.233 166.038 276.487 166 276.744 166C277.438 166.001 278.149 166.27 278.85 166.738C280.945 168.149 283.036 171.377 284.332 175.442C285.082 177.803 285.444 180.093 285.444 182.058C285.444 183.539 285.239 184.835 284.825 185.846C284.413 186.854 283.774 187.595 282.901 187.874C282.655 187.952 282.402 187.989 282.144 187.989C281.45 187.989 280.739 187.719 280.039 187.251C277.943 185.841 275.853 182.612 274.556 178.548L274.826 178.461Z" fill="#17282F"/>
<path d="M318.52 213.79C324.582 212.763 329.133 209.793 328.685 207.154C328.239 204.517 322.963 203.21 316.902 204.238C310.841 205.264 306.289 208.235 306.736 210.873C307.183 213.511 312.459 214.817 318.52 213.79Z" fill="white"/>
<path d="M318.52 213.791L318.473 213.511C321.334 213.026 323.854 212.102 325.639 210.998C326.531 210.446 327.239 209.85 327.715 209.254C328.192 208.657 328.433 208.067 328.432 207.516C328.432 207.41 328.423 207.306 328.406 207.202C328.331 206.763 328.104 206.362 327.724 205.992C327.156 205.44 326.24 204.976 325.074 204.661C323.908 204.343 322.494 204.171 320.936 204.171C319.684 204.171 318.338 204.282 316.949 204.518C314.088 205.001 311.569 205.926 309.783 207.03C308.891 207.581 308.183 208.177 307.707 208.774C307.23 209.371 306.989 209.961 306.99 210.512C306.99 210.617 306.998 210.722 307.016 210.826C307.091 211.264 307.317 211.666 307.698 212.035C308.265 212.588 309.182 213.052 310.348 213.368C311.514 213.684 312.928 213.857 314.486 213.857C315.738 213.857 317.084 213.746 318.473 213.511L318.52 213.791L318.568 214.07C317.149 214.311 315.772 214.425 314.486 214.425C312.352 214.424 310.47 214.113 309.053 213.53C308.344 213.238 307.75 212.877 307.302 212.443C306.855 212.01 306.553 211.496 306.456 210.921C306.434 210.785 306.422 210.649 306.422 210.512C306.423 209.792 306.733 209.084 307.264 208.42C308.86 206.434 312.467 204.707 316.854 203.958C318.273 203.717 319.65 203.603 320.936 203.603C323.07 203.604 324.952 203.915 326.369 204.498C327.078 204.791 327.672 205.151 328.12 205.585C328.567 206.018 328.869 206.532 328.965 207.107C328.989 207.243 329 207.379 329 207.516C328.999 208.236 328.689 208.944 328.158 209.609C326.562 211.594 322.955 213.321 318.568 214.07L318.52 213.791Z" fill="#17282F"/>
<path d="M269.221 199.35C274.283 204.371 280.265 206.548 282.581 204.214C284.897 201.878 282.67 195.915 277.608 190.895C272.545 185.873 266.564 183.696 264.248 186.031C261.932 188.367 264.158 194.33 269.221 199.35Z" fill="white"/>
<path d="M269.22 199.35L269.421 199.149C271.244 200.958 273.187 202.391 275.023 203.37C276.858 204.35 278.588 204.869 279.964 204.867C280.996 204.866 281.814 204.583 282.379 204.013C282.935 203.453 283.211 202.648 283.213 201.637C283.214 200.262 282.686 198.53 281.691 196.694C280.697 194.857 279.241 192.914 277.407 191.096C275.584 189.288 273.641 187.854 271.805 186.875C269.97 185.896 268.239 185.377 266.864 185.378C265.831 185.379 265.013 185.663 264.449 186.231C263.893 186.793 263.616 187.597 263.615 188.608C263.613 189.983 264.142 191.716 265.137 193.552C266.131 195.389 267.587 197.331 269.421 199.149L269.22 199.35L269.021 199.552C267.151 197.698 265.662 195.715 264.638 193.822C263.614 191.928 263.049 190.126 263.047 188.608C263.046 187.497 263.359 186.524 264.046 185.832C264.743 185.129 265.731 184.809 266.864 184.811C268.379 184.812 270.179 185.367 272.072 186.374C273.964 187.383 275.947 188.848 277.807 190.693C279.677 192.548 281.166 194.53 282.19 196.424C283.214 198.317 283.779 200.12 283.78 201.637C283.781 202.748 283.469 203.72 282.782 204.414C282.085 205.117 281.096 205.436 279.964 205.435C278.449 205.433 276.649 204.879 274.756 203.871C272.864 202.863 270.881 201.397 269.021 199.552L269.22 199.35Z" fill="#17282F"/>
<path d="M304.106 185.579C299.21 192.682 297.751 200.17 300.847 202.303C303.943 204.437 310.422 200.409 315.317 193.307C320.212 186.204 321.671 178.717 318.575 176.583C315.479 174.449 309.001 178.477 304.106 185.579Z" fill="white"/>
<path d="M304.105 185.579L304.339 185.74C301.206 190.28 299.501 194.989 299.505 198.257C299.505 199.157 299.634 199.945 299.886 200.587C300.139 201.23 300.51 201.726 301.008 202.069C301.517 202.419 302.127 202.59 302.836 202.591C304.435 202.595 306.516 201.69 308.679 200.044C310.844 198.402 313.095 196.03 315.083 193.146C318.216 188.605 319.92 183.896 319.916 180.628C319.916 179.728 319.788 178.94 319.535 178.298C319.283 177.655 318.911 177.159 318.414 176.816C317.906 176.466 317.295 176.295 316.586 176.294C314.987 176.29 312.906 177.195 310.743 178.841C308.578 180.484 306.327 182.856 304.339 185.74L304.105 185.579L303.871 185.418C305.891 182.488 308.177 180.076 310.4 178.389C312.623 176.704 314.779 175.731 316.586 175.727C317.386 175.726 318.121 175.924 318.736 176.348C319.338 176.763 319.779 177.363 320.064 178.091C320.349 178.818 320.483 179.674 320.483 180.628C320.479 184.082 318.729 188.85 315.55 193.467C313.531 196.397 311.244 198.809 309.022 200.497C306.798 202.182 304.643 203.154 302.836 203.158C302.036 203.159 301.3 202.961 300.686 202.537C300.083 202.122 299.642 201.521 299.357 200.794C299.072 200.066 298.938 199.21 298.938 198.257C298.942 194.802 300.693 190.035 303.871 185.418L304.105 185.579Z" fill="#17282F"/>
<path d="M293.195 202.939L292.734 224.414C292.73 224.571 292.601 224.695 292.444 224.692C292.288 224.689 292.163 224.559 292.166 224.402L292.628 202.927C292.631 202.77 292.761 202.646 292.918 202.649C293.074 202.653 293.199 202.782 293.195 202.939Z" fill="#17282F"/>
<path d="M293.75 182.294L293.195 202.941C293.191 203.097 293.06 203.221 292.903 203.217C292.747 203.213 292.624 203.082 292.628 202.925L293.183 182.278C293.187 182.122 293.317 181.998 293.474 182.002C293.631 182.006 293.754 182.137 293.75 182.294Z" fill="#17282F"/>
<path d="M293.71 178.91L293.75 180.492C293.754 180.649 293.63 180.779 293.473 180.783C293.317 180.787 293.187 180.663 293.183 180.507L293.142 178.925C293.139 178.768 293.262 178.638 293.419 178.634C293.576 178.63 293.706 178.754 293.71 178.91Z" fill="#17282F"/>
<path d="M301.127 201.41C298.154 207.654 295.739 215.231 295.272 223.838C295.264 223.994 295.13 224.114 294.973 224.106C294.817 224.097 294.697 223.963 294.706 223.806C295.177 215.112 297.617 207.462 300.614 201.166C300.682 201.025 300.851 200.965 300.992 201.032C301.134 201.099 301.194 201.269 301.127 201.41Z" fill="#17282F"/>
<path d="M311.313 185.825C308.549 189.015 304.482 194.36 301.126 201.41C301.059 201.552 300.889 201.612 300.747 201.545C300.606 201.477 300.546 201.308 300.613 201.166C303.999 194.057 308.095 188.672 310.883 185.454C310.986 185.335 311.166 185.322 311.284 185.425C311.402 185.528 311.415 185.707 311.313 185.825Z" fill="#17282F"/>
<path d="M314.508 182.447C314.508 182.447 314.472 182.48 314.399 182.548C314.182 182.754 313.648 183.269 312.891 184.074C312.784 184.188 312.605 184.194 312.49 184.086C312.376 183.979 312.37 183.8 312.478 183.685C313.498 182.601 314.121 182.032 314.126 182.027C314.241 181.922 314.421 181.93 314.526 182.046C314.632 182.161 314.624 182.341 314.508 182.447Z" fill="#17282F"/>
<path d="M282.44 203.327C285.931 208.151 289.434 214.462 292.134 222.561C292.184 222.71 292.103 222.87 291.954 222.92C291.806 222.97 291.645 222.889 291.595 222.74C288.914 214.698 285.439 208.439 281.981 203.659C281.889 203.532 281.917 203.355 282.044 203.263C282.171 203.171 282.349 203.2 282.44 203.327Z" fill="#17282F"/>
<path d="M275.555 195.416C277.67 197.42 280.053 200.025 282.44 203.327C282.532 203.454 282.504 203.631 282.377 203.723C282.25 203.815 282.072 203.787 281.98 203.66C279.614 200.389 277.256 197.81 275.165 195.828C275.051 195.72 275.046 195.54 275.154 195.426C275.262 195.312 275.442 195.307 275.555 195.416Z" fill="#17282F"/>
<path d="M268.175 189.794C268.191 189.802 270.333 190.902 273.445 193.525C273.565 193.626 273.58 193.805 273.479 193.926C273.378 194.045 273.199 194.061 273.079 193.96C271.542 192.664 270.247 191.746 269.339 191.154C268.884 190.858 268.527 190.643 268.284 190.503C268.162 190.433 268.069 190.382 268.007 190.347C267.945 190.314 267.916 190.299 267.916 190.299C267.776 190.228 267.721 190.056 267.793 189.917C267.864 189.777 268.035 189.722 268.175 189.794Z" fill="#17282F"/>
<path d="M282.732 186.065C286.034 196.455 290.465 211.803 292.536 225.146C292.56 225.301 292.453 225.446 292.298 225.47C292.143 225.494 291.999 225.387 291.975 225.233C289.913 211.944 285.488 196.611 282.191 186.237C282.144 186.088 282.227 185.928 282.376 185.881C282.525 185.833 282.685 185.916 282.732 186.065Z" fill="#17282F"/>
<path d="M280.721 179.903C281.309 181.655 281.992 183.735 282.733 186.065C282.78 186.215 282.697 186.374 282.548 186.422C282.399 186.469 282.239 186.387 282.192 186.237C281.452 183.911 280.77 181.833 280.183 180.083C280.133 179.935 280.213 179.774 280.362 179.724C280.51 179.674 280.671 179.754 280.721 179.903Z" fill="#17282F"/>
<path d="M278.659 173.94C278.66 173.941 279.237 175.532 280.165 178.261C280.216 178.409 280.137 178.57 279.988 178.621C279.84 178.671 279.679 178.592 279.628 178.443C279.165 177.082 278.789 176.004 278.529 175.267C278.269 174.529 278.126 174.135 278.126 174.134C278.072 173.986 278.148 173.824 278.295 173.77C278.443 173.716 278.605 173.792 278.659 173.94Z" fill="#17282F"/>
<path d="M307.142 209.699C303.075 211.246 299.137 214.193 297.209 219.815C297.158 219.963 296.996 220.042 296.848 219.991C296.7 219.94 296.621 219.779 296.672 219.63C298.655 213.831 302.765 210.748 306.941 209.168C307.087 209.113 307.251 209.187 307.307 209.334C307.362 209.48 307.288 209.643 307.142 209.699Z" fill="#17282F"/>
<path d="M314.671 208.169C312.473 208.298 309.782 208.698 307.142 209.699C306.996 209.755 306.832 209.681 306.776 209.535C306.72 209.388 306.794 209.224 306.941 209.169C309.654 208.14 312.399 207.735 314.638 207.603C314.794 207.594 314.929 207.713 314.938 207.87C314.947 208.026 314.828 208.16 314.671 208.169Z" fill="#17282F"/>
<path d="M319.548 208.289C319.548 208.289 319.506 208.284 319.421 208.273C319.164 208.242 318.532 208.175 317.634 208.139C317.477 208.133 317.355 208.001 317.361 207.845C317.367 207.688 317.499 207.566 317.656 207.572C318.878 207.621 319.621 207.726 319.628 207.727C319.783 207.749 319.891 207.893 319.869 208.049C319.847 208.203 319.703 208.311 319.548 208.289Z" fill="#17282F"/>
<path d="M266.651 213.79C260.59 212.763 256.038 209.793 256.485 207.154C256.932 204.517 262.208 203.21 268.269 204.238C274.33 205.264 278.881 208.235 278.435 210.873C277.988 213.511 272.712 214.817 266.651 213.79Z" fill="white"/>
<path d="M266.65 213.791L266.603 214.07C263.678 213.574 261.1 212.633 259.233 211.481C258.3 210.903 257.544 210.274 257.012 209.609C256.482 208.944 256.171 208.236 256.171 207.516C256.171 207.379 256.182 207.243 256.205 207.107C256.302 206.532 256.603 206.018 257.051 205.585C257.723 204.934 258.721 204.447 259.948 204.113C261.175 203.78 262.634 203.604 264.235 203.603C265.521 203.603 266.897 203.717 268.316 203.958C271.24 204.453 273.819 205.395 275.685 206.547C276.619 207.124 277.375 207.755 277.907 208.42C278.437 209.084 278.747 209.792 278.748 210.512C278.748 210.649 278.737 210.785 278.714 210.921C278.617 211.496 278.315 212.01 277.868 212.443C277.195 213.093 276.197 213.581 274.971 213.915C273.744 214.248 272.284 214.425 270.684 214.425C269.398 214.425 268.022 214.311 266.603 214.07L266.65 213.791L266.698 213.511C268.086 213.746 269.432 213.857 270.684 213.857C272.762 213.858 274.583 213.549 275.902 213.005C276.561 212.734 277.094 212.404 277.473 212.035C277.853 211.666 278.079 211.264 278.154 210.826C278.172 210.722 278.18 210.617 278.18 210.512C278.181 209.961 277.94 209.371 277.463 208.774C276.037 206.974 272.513 205.238 268.221 204.518C266.833 204.282 265.487 204.171 264.235 204.171C262.157 204.17 260.336 204.479 259.017 205.024C258.358 205.295 257.825 205.624 257.446 205.992C257.066 206.362 256.84 206.763 256.765 207.202C256.747 207.306 256.739 207.41 256.739 207.516C256.738 208.067 256.979 208.657 257.456 209.254C258.882 211.054 262.406 212.79 266.698 213.511L266.65 213.791Z" fill="#17282F"/>
<path d="M278.098 209.119C282.319 210.683 286.495 213.769 288.499 219.63C288.55 219.779 288.471 219.94 288.323 219.991C288.175 220.042 288.013 219.963 287.962 219.815C286.013 214.134 282.012 211.184 277.9 209.651C277.753 209.596 277.678 209.433 277.733 209.286C277.788 209.139 277.951 209.064 278.098 209.119Z" fill="#17282F"/>
<path d="M269.888 207.572C272.198 207.66 275.161 208.029 278.098 209.119C278.244 209.174 278.319 209.337 278.264 209.484C278.21 209.631 278.046 209.706 277.899 209.652C275.042 208.589 272.135 208.225 269.867 208.139C269.71 208.134 269.588 208.002 269.594 207.845C269.599 207.689 269.732 207.567 269.888 207.572Z" fill="#17282F"/>
<path d="M265.542 207.727C265.548 207.727 266.039 207.656 266.877 207.605C267.034 207.595 267.169 207.714 267.178 207.871C267.188 208.027 267.069 208.161 266.912 208.171C266.502 208.197 266.178 208.226 265.957 208.249C265.847 208.261 265.762 208.271 265.706 208.278C265.649 208.285 265.622 208.289 265.622 208.289C265.467 208.311 265.324 208.203 265.301 208.049C265.279 207.893 265.387 207.749 265.542 207.727Z" fill="#17282F"/>
<path d="M278.086 237.97C276.308 234.25 275.27 229.955 275.27 225.677C275.27 223.027 275.671 220.495 276.396 218.16H308.115C308.839 220.495 309.241 223.027 309.241 225.677C309.241 229.955 308.203 234.25 306.426 237.97H278.086Z" fill="#17282F"/>
<path d="M308.927 221.674C309.018 222.252 309.088 222.838 309.14 223.432H275.369C275.421 222.838 275.49 222.252 275.582 221.674H308.927Z" fill="#17282F"/>
<path d="M275.729 230.656C275.623 230.073 275.531 229.488 275.462 228.899H309.048C308.979 229.488 308.885 230.073 308.78 230.656H275.729Z" fill="#17282F"/>
<path d="M244 121.5C244 169.825 204.825 209 156.5 209C108.175 209 69 169.825 69 121.5C69 73.1751 108.175 34 156.5 34" stroke="black"/>
<path d="M7.97204 53.7429C7.87409 53.7429 7.77521 53.7149 7.68729 53.6589C7.44661 53.5003 7.37921 53.176 7.53686 52.9357L9.05533 50.6167C9.21275 50.3764 9.53598 50.3088 9.77642 50.4674C10.0169 50.6261 10.0845 50.948 9.92662 51.1883L8.40838 53.5073C8.36082 53.5796 8.29605 53.639 8.2199 53.6801C8.14375 53.7212 8.05858 53.7428 7.97204 53.7429ZM2.65779 61.8569C2.56007 61.8569 2.46119 61.829 2.37304 61.773C2.13236 61.6143 2.06497 61.2924 2.22286 61.0521L3.74107 58.7331C3.89919 58.4928 4.22126 58.4252 4.46217 58.5815C4.70285 58.7401 4.77025 59.062 4.6126 59.3047L3.09413 61.6213C2.99408 61.7753 2.8278 61.8569 2.65779 61.8569ZM3.24549 54.7321C3.14521 54.7321 3.044 54.7018 2.95468 54.6434L0.691571 53.1154C0.452993 52.9544 0.390252 52.6301 0.550936 52.3921C0.712087 52.1542 1.03578 52.0912 1.27413 52.2522L3.53724 53.7779C3.77582 53.9388 3.83856 54.2631 3.67787 54.5011C3.57712 54.6504 3.41294 54.7321 3.24549 54.7321ZM11.1661 60.0769C11.0659 60.0769 10.9647 60.0489 10.8753 59.9883L8.61245 58.4625C8.37364 58.3015 8.3109 57.9772 8.47159 57.7369C8.6325 57.499 8.9562 57.4383 9.19478 57.597L11.4579 59.1251C11.6965 59.286 11.7592 59.6103 11.5985 59.8483C11.4978 59.9976 11.3334 60.0769 11.1661 60.0769ZM30.3175 34.062C29.6796 34.062 29.0418 34.188 28.4336 34.44C25.8731 35.5038 24.6364 38.497 25.6767 41.1122C26.1847 42.3907 27.1509 43.3845 28.3974 43.9094C29.6178 44.425 30.9637 44.4274 32.1876 43.9211C34.7483 42.8573 35.9853 39.8641 34.9444 37.2488C34.4365 35.9703 33.4703 34.9765 32.224 34.4516C31.6097 34.1927 30.9637 34.062 30.3175 34.062ZM30.3039 45.3419C29.5203 45.3419 28.7372 45.1856 27.9925 44.8706C26.4869 44.2337 25.3208 43.0369 24.7089 41.4995C23.4591 38.357 24.9512 34.7595 28.0343 33.4787C29.518 32.8628 31.1496 32.8652 32.6288 33.4904C34.1345 34.1273 35.3006 35.3241 35.9125 36.8615C37.1623 40.004 35.6704 43.6015 32.5869 44.8823C31.8504 45.1879 31.0768 45.3419 30.3039 45.3419ZM128.157 61.9316C127.742 61.9316 127.329 62.0179 126.94 62.1929C125.398 62.8835 124.694 64.7265 125.37 66.3036C125.702 67.0735 126.306 67.6614 127.073 67.96C127.821 68.254 128.64 68.2329 129.375 67.904C130.916 67.2158 131.621 65.3704 130.942 63.7933C130.611 63.0258 130.007 62.4355 129.242 62.1369C128.89 61.9993 128.523 61.9316 128.157 61.9316ZM128.157 69.2104C127.663 69.2104 127.168 69.1171 126.693 68.9305C125.664 68.5292 124.855 67.743 124.414 66.7142C123.514 64.6192 124.456 62.1626 126.513 61.2411C127.507 60.7978 128.61 60.7721 129.62 61.1664C130.648 61.5677 131.457 62.3562 131.9 63.3827C132.801 65.4801 131.858 67.9367 129.799 68.8559C129.274 69.0915 128.717 69.2104 128.157 69.2104ZM145.644 5.12151C145.476 5.12151 145.313 5.04225 145.213 4.89294C145.052 4.65265 145.115 4.33071 145.353 4.16974L147.65 2.62059C147.888 2.45962 148.214 2.52261 148.373 2.76057C148.534 3.00087 148.471 3.32281 148.233 3.48379L145.936 5.03294C145.845 5.09359 145.744 5.12151 145.644 5.12151ZM137.601 10.541C137.435 10.541 137.269 10.4617 137.169 10.3124C137.008 10.0744 137.071 9.75013 137.309 9.58915L139.609 8.04008C139.846 7.8791 140.171 7.94213 140.332 8.18243C140.492 8.42039 140.429 8.74466 140.189 8.9033L137.892 10.4523C137.803 10.513 137.701 10.541 137.601 10.541ZM140.903 4.2C140.733 4.2 140.567 4.11838 140.467 3.9644L138.974 1.68039C138.816 1.43776 138.883 1.1158 139.123 0.957161C139.364 0.80085 139.688 0.8685 139.844 1.1088L141.339 3.39513C141.498 3.63542 141.43 3.95741 141.187 4.11604C141.101 4.17204 141.001 4.2 140.903 4.2ZM146.134 12.1998C145.964 12.1998 145.798 12.1158 145.698 11.9641L144.203 9.67781C144.047 9.43751 144.114 9.11561 144.354 8.95697C144.595 8.80066 144.919 8.86831 145.075 9.1086L146.57 11.3949C146.726 11.6352 146.659 11.9571 146.418 12.1158C146.33 12.1717 146.232 12.1998 146.134 12.1998Z" fill="#212121"/>
<path d="M228 121.5C228 82.0116 195.988 50 156.5 50C117.012 50 85 82.0116 85 121.5C85 160.988 117.012 193 156.5 193" stroke="black"/>
<path d="M382.54 67H319.46C319.293 67 319.137 66.9067 319.057 66.7584C318.976 66.6101 318.982 66.4263 319.072 66.2836C319.09 66.2621 320.455 64.0624 322.264 62.7451C322.869 62.3076 323.534 61.9615 324.247 61.8561C324.491 61.8206 324.733 61.8057 324.972 61.8057C326.708 61.815 328.259 62.6164 328.99 63.0586C329.457 62.2469 330.621 60.6144 332.816 59.7739C333.319 59.5817 333.81 59.5033 334.275 59.5033C334.276 59.5033 334.277 59.5033 334.278 59.5033C335.246 59.5043 336.093 59.8308 336.83 60.1284C337.558 60.4288 338.19 60.6881 338.668 60.6881C338.675 60.6881 338.68 60.6872 338.687 60.6872C338.92 60.6862 339.117 60.6386 339.325 60.5127C339.802 60.2394 340.207 59.4884 340.576 58.5826C340.955 57.6823 341.312 56.6617 341.934 55.8772C342.346 55.3557 342.917 54.9341 343.657 54.8305C343.807 54.8091 343.957 54.7979 344.104 54.7979C345.289 54.8053 346.301 55.4275 347.226 55.9836C348.137 56.547 348.975 57.0358 349.654 57.0358C349.662 57.0358 349.67 57.0358 349.679 57.0358C349.842 57.0358 350 57.0116 350.161 56.9575C350.374 56.8922 350.729 56.6217 351.125 56.2009C351.526 55.783 351.982 55.2279 352.493 54.6253C353.516 53.4181 354.755 52.0122 356.327 51.0607C357.373 50.4273 358.576 50 359.934 50C359.935 50 359.936 50 359.937 50C360.552 50 361.196 50.0868 361.867 50.2761C365.132 51.196 367.29 53.4853 368.625 55.5162C369.676 57.1152 370.23 58.5658 370.423 59.1274C370.629 59.1768 370.838 59.2001 371.052 59.2001C371.06 59.2001 371.066 59.2001 371.074 59.2001C372.155 59.2001 373.397 58.5621 374.652 57.868C375.92 57.1814 377.194 56.4341 378.528 56.4229C378.529 56.4229 378.529 56.4229 378.529 56.4229C378.881 56.4229 379.236 56.4808 379.581 56.6114C380.467 56.9584 381.048 57.7971 381.496 58.7822C381.942 59.7748 382.25 60.9549 382.471 62.0967C382.912 64.3776 382.998 66.5009 383 66.5149C383.004 66.6409 382.958 66.7658 382.872 66.8563C382.785 66.9478 382.664 67 382.54 67ZM320.346 66.0671H382.051C382.045 65.9832 382.039 65.8889 382.031 65.7854C381.993 65.304 381.929 64.6314 381.828 63.8739C381.626 62.3598 381.258 60.4969 380.658 59.1684C380.262 58.2766 379.76 57.6665 379.258 57.4855C379.024 57.396 378.783 57.3558 378.528 57.3558C378.519 57.3558 378.511 57.3558 378.503 57.3558C377.543 57.3558 376.345 57.993 375.09 58.6889C373.818 59.3783 372.48 60.1246 371.052 60.133C370.675 60.133 370.293 60.078 369.917 59.9502C369.775 59.9026 369.664 59.7869 369.621 59.6414L369.6 59.5733C369.584 59.5257 369.56 59.453 369.527 59.3597C369.461 59.1722 369.359 58.9007 369.217 58.5677C368.934 57.9016 368.49 56.9929 367.86 56.0339C366.596 54.1131 364.595 52.0104 361.621 51.1745C361.025 51.0066 360.466 50.9329 359.937 50.9329C359.936 50.9329 359.934 50.9329 359.933 50.9329C357.899 50.9329 356.248 52.044 354.844 53.4181C353.438 54.7913 352.345 56.3847 351.352 57.2719C351.064 57.5256 350.778 57.7299 350.452 57.8428C350.195 57.9296 349.935 57.9687 349.68 57.9687C349.68 57.9687 349.68 57.9687 349.679 57.9687C348.599 57.9557 347.67 57.3325 346.752 56.783C345.843 56.2252 344.955 55.7307 344.122 55.7307C344.116 55.7307 344.11 55.7307 344.104 55.7307C343.998 55.7317 343.892 55.7382 343.786 55.7541C343.429 55.8072 343.155 55.9556 342.897 56.1934C342.641 56.4323 342.411 56.77 342.203 57.1665C341.781 57.9622 341.456 58.98 341.011 59.855C340.711 60.4353 340.35 60.9745 339.799 61.3131C339.447 61.5296 339.063 61.62 338.695 61.62C338.692 61.62 338.689 61.62 338.687 61.62C337.916 61.6135 337.212 61.2833 336.489 60.995C335.768 60.7012 335.038 60.4362 334.285 60.4362C334.283 60.4362 334.281 60.4362 334.278 60.4362C333.913 60.4362 333.538 60.4959 333.139 60.6471C330.719 61.5594 329.694 63.6668 329.595 63.8907L329.588 63.9075C329.533 64.0372 329.423 64.1342 329.289 64.1724C329.247 64.1845 329.206 64.1902 329.165 64.1902C329.07 64.1902 328.976 64.1603 328.898 64.1034L328.88 64.0913L328.82 64.0493C328.766 64.0129 328.684 63.9597 328.579 63.8963C328.369 63.7666 328.065 63.594 327.696 63.4215C326.96 63.0754 325.97 62.7386 324.98 62.7386C324.977 62.7386 324.975 62.7386 324.972 62.7386C324.773 62.7386 324.575 62.7517 324.378 62.7796C323.502 62.8963 322.482 63.6528 321.659 64.5064C321.124 65.0549 320.667 65.6315 320.346 66.0671Z" fill="black"/>
<path d="M312.683 42H269.316C269.201 42 269.094 41.9342 269.039 41.8295C268.984 41.7248 268.987 41.595 269.049 41.4943C269.062 41.4791 270 39.9264 271.244 38.9966C271.66 38.6877 272.117 38.4434 272.607 38.369C272.775 38.344 272.941 38.3334 273.106 38.3334C274.299 38.34 275.366 38.9057 275.868 39.2178C276.189 38.6449 276.989 37.4925 278.498 36.8992C278.844 36.7635 279.182 36.7082 279.502 36.7082C279.502 36.7082 279.503 36.7082 279.504 36.7082C280.169 36.7089 280.751 36.9394 281.258 37.1494C281.759 37.3615 282.193 37.5446 282.522 37.5446C282.526 37.5446 282.53 37.5439 282.535 37.5439C282.695 37.5432 282.83 37.5096 282.974 37.4207C283.302 37.2278 283.58 36.6977 283.834 36.0583C284.094 35.4228 284.34 34.7024 284.767 34.1486C285.05 33.7805 285.443 33.4829 285.951 33.4098C286.055 33.3946 286.158 33.3867 286.259 33.3867C287.074 33.392 287.769 33.8312 288.405 34.2237C289.032 34.6214 289.608 34.9665 290.074 34.9665C290.08 34.9665 290.086 34.9665 290.092 34.9665C290.204 34.9665 290.312 34.9494 290.423 34.9112C290.57 34.8651 290.814 34.6741 291.086 34.3771C291.362 34.0821 291.675 33.6903 292.027 33.2649C292.73 32.4128 293.582 31.4204 294.663 30.7487C295.381 30.3016 296.208 30 297.142 30C297.143 30 297.144 30 297.144 30C297.567 30 298.01 30.0612 298.471 30.1949C300.716 30.8442 302.199 32.4602 303.117 33.8938C303.84 35.0225 304.22 36.0464 304.353 36.4429C304.495 36.4778 304.639 36.4942 304.786 36.4942C304.791 36.4942 304.796 36.4942 304.801 36.4942C305.544 36.4942 306.398 36.0438 307.261 35.5539C308.133 35.0692 309.008 34.5417 309.925 34.5338C309.926 34.5338 309.926 34.5338 309.927 34.5338C310.168 34.5338 310.412 34.5747 310.65 34.6669C311.258 34.9118 311.658 35.5038 311.966 36.1992C312.273 36.8999 312.484 37.7329 312.637 38.5389C312.94 40.1489 312.999 41.6477 313 41.6576C313.003 41.7465 312.971 41.8347 312.912 41.8986C312.852 41.9631 312.769 42 312.683 42ZM269.925 41.3415H312.347C312.344 41.2822 312.339 41.2157 312.334 41.1426C312.308 40.8028 312.264 40.3281 312.194 39.7934C312.055 38.7246 311.803 37.4096 311.39 36.4718C311.117 35.8423 310.772 35.4116 310.428 35.2839C310.266 35.2207 310.101 35.1923 309.925 35.1923C309.92 35.1923 309.914 35.1923 309.908 35.1923C309.248 35.1923 308.425 35.6421 307.562 36.1334C306.687 36.62 305.767 37.1468 304.786 37.1527C304.527 37.1527 304.264 37.1139 304.005 37.0237C303.908 36.9901 303.832 36.9084 303.802 36.8057L303.788 36.7576C303.777 36.724 303.76 36.6727 303.738 36.6068C303.692 36.4745 303.622 36.2829 303.524 36.0478C303.329 35.5776 303.024 34.9362 302.591 34.2592C301.722 32.9034 300.347 31.4191 298.302 30.8291C297.892 30.7106 297.508 30.6585 297.144 30.6585C297.144 30.6585 297.142 30.6585 297.142 30.6585C295.743 30.6585 294.608 31.4428 293.643 32.4128C292.676 33.3821 291.925 34.5068 291.242 35.1331C291.044 35.3122 290.848 35.4564 290.623 35.5361C290.447 35.5973 290.267 35.625 290.092 35.625C290.092 35.625 290.092 35.625 290.092 35.625C289.349 35.6158 288.711 35.1759 288.079 34.788C287.454 34.3942 286.844 34.0452 286.272 34.0452C286.267 34.0452 286.263 34.0452 286.259 34.0452C286.186 34.0459 286.113 34.0505 286.041 34.0617C285.795 34.0992 285.607 34.2039 285.429 34.3718C285.253 34.5404 285.095 34.7788 284.952 35.0587C284.662 35.6204 284.439 36.3388 284.132 36.9565C283.926 37.3661 283.678 37.7467 283.3 37.9857C283.057 38.1385 282.793 38.2024 282.54 38.2024C282.538 38.2024 282.536 38.2024 282.535 38.2024C282.005 38.1978 281.521 37.9647 281.024 37.7612C280.528 37.5538 280.026 37.3667 279.508 37.3667C279.507 37.3667 279.506 37.3667 279.504 37.3667C279.253 37.3667 278.995 37.4089 278.72 37.5156C277.057 38.1596 276.352 39.6471 276.284 39.8052L276.279 39.8171C276.241 39.9086 276.166 39.9771 276.074 40.0041C276.045 40.0126 276.017 40.0166 275.988 40.0166C275.923 40.0166 275.858 39.9955 275.805 39.9553L275.793 39.9468L275.751 39.9171C275.714 39.8915 275.658 39.8539 275.586 39.8091C275.441 39.7176 275.232 39.5958 274.978 39.474C274.473 39.2297 273.792 38.992 273.111 38.992C273.109 38.992 273.108 38.992 273.106 38.992C272.969 38.992 272.833 39.0012 272.697 39.0209C272.095 39.1032 271.394 39.6373 270.828 40.2398C270.46 40.627 270.146 41.034 269.925 41.3415Z" fill="black"/>
<circle cx="156.5" cy="121.5" r="55.5" fill="black"/>
<path d="M123.872 120.241L138.295 120.241L141.744 129.334L134.645 142.503L123.872 120.241Z" fill="#EFEFEF"/>
<path d="M145.164 110.204L159.624 110.204L149.276 142.485L134.696 142.485L145.164 110.204Z" fill="white"/>
<path d="M145.178 110.221L159.602 110.221L169.342 135.607L162.242 148.776L145.178 110.221Z" fill="#EFEFEF"/>
<path d="M176.497 97.3955L191.271 97.3954L176.847 148.755L162.267 148.755L176.497 97.3955Z" fill="white"/>
</svg>
